<svg width="469" height="134" viewBox="0 0 469 134" fill="none" xmlns="http://www.w3.org/2000/svg">
<path d="M62.9205 25.625H47.9886C47.7159 23.6932 47.1591 21.9773 46.3182 20.4773C45.4773 18.9545 44.3977 17.6591 43.0795 16.5909C41.7614 15.5227 40.2386 14.7045 38.5114 14.1364C36.8068 13.5682 34.9545 13.2841 32.9545 13.2841C29.3409 13.2841 26.1932 14.1818 23.5114 15.9773C20.8295 17.75 18.75 20.3409 17.2727 23.75C15.7955 27.1364 15.0568 31.25 15.0568 36.0909C15.0568 41.0682 15.7955 45.25 17.2727 48.6364C18.7727 52.0227 20.8636 54.5795 23.5455 56.3068C26.2273 58.0341 29.3295 58.8977 32.8523 58.8977C34.8295 58.8977 36.6591 58.6364 38.3409 58.1136C40.0455 57.5909 41.5568 56.8295 42.875 55.8295C44.1932 54.8068 45.2841 53.5682 46.1477 52.1136C47.0341 50.6591 47.6477 49 47.9886 47.1364L62.9205 47.2045C62.5341 50.4091 61.5682 53.5 60.0227 56.4773C58.5 59.4318 56.4432 62.0795 53.8523 64.4205C51.2841 66.7386 48.2159 68.5795 44.6477 69.9432C41.1023 71.2841 37.0909 71.9545 32.6136 71.9545C26.3864 71.9545 20.8182 70.5455 15.9091 67.7273C11.0227 64.9091 7.15909 60.8295 4.31818 55.4886C1.5 50.1477 0.0909091 43.6818 0.0909091 36.0909C0.0909091 28.4773 1.52273 22 4.38636 16.6591C7.25 11.3182 11.1364 7.25 16.0455 4.45455C20.9545 1.63636 26.4773 0.22727 32.6136 0.22727C36.6591 0.22727 40.4091 0.795452 43.8636 1.93182C47.3409 3.06818 50.4205 4.72727 53.1023 6.90909C55.7841 9.06818 57.9659 11.7159 59.6477 14.8523C61.3523 17.9886 62.4432 21.5795 62.9205 25.625ZM88.267 1.18182V71H73.5057V1.18182H88.267ZM162.014 25.625H147.082C146.81 23.6932 146.253 21.9773 145.412 20.4773C144.571 18.9545 143.491 17.6591 142.173 16.5909C140.855 15.5227 139.332 14.7045 137.605 14.1364C135.901 13.5682 134.048 13.2841 132.048 13.2841C128.435 13.2841 125.287 14.1818 122.605 15.9773C119.923 17.75 117.844 20.3409 116.366 23.75C114.889 27.1364 114.151 31.25 114.151 36.0909C114.151 41.0682 114.889 45.25 116.366 48.6364C117.866 52.0227 119.957 54.5795 122.639 56.3068C125.321 58.0341 128.423 58.8977 131.946 58.8977C133.923 58.8977 135.753 58.6364 137.435 58.1136C139.139 57.5909 140.651 56.8295 141.969 55.8295C143.287 54.8068 144.378 53.5682 145.241 52.1136C146.128 50.6591 146.741 49 147.082 47.1364L162.014 47.2045C161.628 50.4091 160.662 53.5 159.116 56.4773C157.594 59.4318 155.537 62.0795 152.946 64.4205C150.378 66.7386 147.31 68.5795 143.741 69.9432C140.196 71.2841 136.185 71.9545 131.707 71.9545C125.48 71.9545 119.912 70.5455 115.003 67.7273C110.116 64.9091 106.253 60.8295 103.412 55.4886C100.594 50.1477 99.1847 43.6818 99.1847 36.0909C99.1847 28.4773 100.616 22 103.48 16.6591C106.344 11.3182 110.23 7.25 115.139 4.45455C120.048 1.63636 125.571 0.22727 131.707 0.22727C135.753 0.22727 139.503 0.795452 142.957 1.93182C146.435 3.06818 149.514 4.72727 152.196 6.90909C154.878 9.06818 157.06 11.7159 158.741 14.8523C160.446 17.9886 161.537 21.5795 162.014 25.625ZM172.599 71V1.18182H187.361V58.8295H217.293V71H172.599ZM241.83 1.18182V71H227.068V1.18182H241.83ZM291.849 21.2614C291.577 18.5114 290.406 16.375 288.338 14.8523C286.27 13.3295 283.463 12.5682 279.918 12.5682C277.509 12.5682 275.474 12.9091 273.815 13.5909C272.156 14.25 270.884 15.1705 269.997 16.3523C269.134 17.5341 268.702 18.875 268.702 20.375C268.656 21.625 268.918 22.7159 269.486 23.6477C270.077 24.5795 270.884 25.3864 271.906 26.0682C272.929 26.7273 274.111 27.3068 275.452 27.8068C276.793 28.2841 278.224 28.6932 279.747 29.0341L286.02 30.5341C289.065 31.2159 291.861 32.125 294.406 33.2614C296.952 34.3977 299.156 35.7955 301.02 37.4545C302.884 39.1136 304.327 41.0682 305.349 43.3182C306.395 45.5682 306.929 48.1477 306.952 51.0568C306.929 55.3295 305.838 59.0341 303.679 62.1705C301.543 65.2841 298.452 67.7045 294.406 69.4318C290.384 71.1364 285.531 71.9886 279.849 71.9886C274.213 71.9886 269.304 71.125 265.122 69.3977C260.963 67.6705 257.713 65.1136 255.372 61.7273C253.054 58.3182 251.838 54.1023 251.724 49.0795H266.009C266.168 51.4205 266.838 53.375 268.02 54.9432C269.224 56.4886 270.827 57.6591 272.827 58.4545C274.849 59.2273 277.134 59.6136 279.679 59.6136C282.179 59.6136 284.349 59.25 286.19 58.5227C288.054 57.7955 289.497 56.7841 290.52 55.4886C291.543 54.1932 292.054 52.7045 292.054 51.0227C292.054 49.4545 291.588 48.1364 290.656 47.0682C289.747 46 288.406 45.0909 286.634 44.3409C284.884 43.5909 282.736 42.9091 280.19 42.2955L272.588 40.3864C266.702 38.9545 262.054 36.7159 258.645 33.6705C255.236 30.625 253.543 26.5227 253.565 21.3636C253.543 17.1364 254.668 13.4432 256.94 10.2841C259.236 7.125 262.384 4.65909 266.384 2.88636C270.384 1.11363 274.929 0.22727 280.02 0.22727C285.202 0.22727 289.724 1.11363 293.588 2.88636C297.474 4.65909 300.497 7.125 302.656 10.2841C304.815 13.4432 305.929 17.1023 305.997 21.2614H291.849ZM316.881 1.18182H335.085L354.312 48.0909H355.131L374.358 1.18182H392.562V71H378.244V25.5568H377.665L359.597 70.6591H349.847L331.778 25.3864H331.199V71H316.881V1.18182ZM468.884 36.0909C468.884 43.7045 467.44 50.1818 464.554 55.5227C461.69 60.8636 457.781 64.9432 452.827 67.7614C447.895 70.5568 442.349 71.9545 436.19 71.9545C429.986 71.9545 424.418 70.5455 419.486 67.7273C414.554 64.9091 410.656 60.8295 407.793 55.4886C404.929 50.1477 403.497 43.6818 403.497 36.0909C403.497 28.4773 404.929 22 407.793 16.6591C410.656 11.3182 414.554 7.25 419.486 4.45455C424.418 1.63636 429.986 0.22727 436.19 0.22727C442.349 0.22727 447.895 1.63636 452.827 4.45455C457.781 7.25 461.69 11.3182 464.554 16.6591C467.44 22 468.884 28.4773 468.884 36.0909ZM453.918 36.0909C453.918 31.1591 453.179 27 451.702 23.6136C450.247 20.2273 448.19 17.6591 445.531 15.9091C442.872 14.1591 439.759 13.2841 436.19 13.2841C432.622 13.2841 429.509 14.1591 426.849 15.9091C424.19 17.6591 422.122 20.2273 420.645 23.6136C419.19 27 418.463 31.1591 418.463 36.0909C418.463 41.0227 419.19 45.1818 420.645 48.5682C422.122 51.9545 424.19 54.5227 426.849 56.2727C429.509 58.0227 432.622 58.8977 436.19 58.8977C439.759 58.8977 442.872 58.0227 445.531 56.2727C448.19 54.5227 450.247 51.9545 451.702 48.5682C453.179 45.1818 453.918 41.0227 453.918 36.0909Z" fill="#99FF00"/>
<path d="M10.1951 104.818L16.5233 124.71H16.7662L23.1071 104.818H29.2434L20.2179 131H13.0843L4.04599 104.818H10.1951ZM54.9778 117.909C54.9778 120.764 54.4366 123.193 53.3542 125.196C52.2804 127.199 50.8145 128.729 48.9565 129.786C47.1071 130.834 45.0275 131.358 42.7179 131.358C40.3912 131.358 38.3031 130.83 36.4537 129.773C34.6042 128.716 33.1426 127.186 32.0687 125.183C30.9949 123.18 30.4579 120.756 30.4579 117.909C30.4579 115.054 30.9949 112.625 32.0687 110.622C33.1426 108.619 34.6042 107.094 36.4537 106.045C38.3031 104.989 40.3912 104.46 42.7179 104.46C45.0275 104.46 47.1071 104.989 48.9565 106.045C50.8145 107.094 52.2804 108.619 53.3542 110.622C54.4366 112.625 54.9778 115.054 54.9778 117.909ZM49.3656 117.909C49.3656 116.06 49.0886 114.5 48.5346 113.23C47.9892 111.96 47.2179 110.997 46.2207 110.341C45.2235 109.685 44.0559 109.357 42.7179 109.357C41.3798 109.357 40.2122 109.685 39.215 110.341C38.2179 110.997 37.4423 111.96 36.8883 113.23C36.3429 114.5 36.0701 116.06 36.0701 117.909C36.0701 119.759 36.3429 121.318 36.8883 122.588C37.4423 123.858 38.2179 124.821 39.215 125.477C40.2122 126.134 41.3798 126.462 42.7179 126.462C44.0559 126.462 45.2235 126.134 46.2207 125.477C47.2179 124.821 47.9892 123.858 48.5346 122.588C49.0886 121.318 49.3656 119.759 49.3656 117.909ZM82.1792 113.984H76.5797C76.4775 113.26 76.2686 112.616 75.9533 112.054C75.638 111.483 75.2331 110.997 74.7388 110.597C74.2445 110.196 73.6735 109.889 73.0257 109.676C72.3865 109.463 71.6919 109.357 70.9419 109.357C69.5868 109.357 68.4064 109.693 67.4007 110.366C66.3951 111.031 65.6152 112.003 65.0613 113.281C64.5073 114.551 64.2303 116.094 64.2303 117.909C64.2303 119.776 64.5073 121.344 65.0613 122.614C65.6238 123.884 66.4078 124.842 67.4135 125.49C68.4192 126.138 69.5826 126.462 70.9036 126.462C71.6451 126.462 72.3311 126.364 72.9618 126.168C73.601 125.972 74.1678 125.686 74.6621 125.311C75.1564 124.928 75.5655 124.463 75.8894 123.918C76.2218 123.372 76.4519 122.75 76.5797 122.051L82.1792 122.077C82.0343 123.278 81.6721 124.438 81.0925 125.554C80.5215 126.662 79.7502 127.655 78.7786 128.533C77.8155 129.402 76.665 130.092 75.3269 130.604C73.9973 131.107 72.4931 131.358 70.8141 131.358C68.4789 131.358 66.3908 130.83 64.5499 129.773C62.7175 128.716 61.2686 127.186 60.2033 125.183C59.1465 123.18 58.6181 120.756 58.6181 117.909C58.6181 115.054 59.155 112.625 60.2289 110.622C61.3027 108.619 62.7601 107.094 64.601 106.045C66.4419 104.989 68.513 104.46 70.8141 104.46C72.3311 104.46 73.7374 104.673 75.0328 105.099C76.3368 105.526 77.4917 106.148 78.4973 106.966C79.503 107.776 80.3212 108.768 80.9519 109.945C81.5911 111.121 82.0002 112.467 82.1792 113.984ZM86.1486 131V104.818H103.791V109.382H91.6841V115.621H102.883V120.185H91.6841V126.436H103.842V131H86.1486ZM97.5776 102.466L95.008 99.3466L92.4384 102.466H87.7978V102.287L92.9753 96.6619H97.0279L102.218 102.287V102.466H97.5776ZM121.036 131H115.105L124.143 104.818H131.276L140.302 131H134.37L127.812 110.801H127.607L121.036 131ZM120.666 120.709H134.677V125.03H120.666V120.709ZM165.324 113.984H159.724C159.622 113.26 159.413 112.616 159.098 112.054C158.782 111.483 158.378 110.997 157.883 110.597C157.389 110.196 156.818 109.889 156.17 109.676C155.531 109.463 154.836 109.357 154.086 109.357C152.731 109.357 151.551 109.693 150.545 110.366C149.54 111.031 148.76 112.003 148.206 113.281C147.652 114.551 147.375 116.094 147.375 117.909C147.375 119.776 147.652 121.344 148.206 122.614C148.768 123.884 149.552 124.842 150.558 125.49C151.564 126.138 152.727 126.462 154.048 126.462C154.79 126.462 155.476 126.364 156.106 126.168C156.746 125.972 157.312 125.686 157.807 125.311C158.301 124.928 158.71 124.463 159.034 123.918C159.366 123.372 159.596 122.75 159.724 122.051L165.324 122.077C165.179 123.278 164.817 124.438 164.237 125.554C163.666 126.662 162.895 127.655 161.923 128.533C160.96 129.402 159.809 130.092 158.471 130.604C157.142 131.107 155.638 131.358 153.959 131.358C151.623 131.358 149.535 130.83 147.694 129.773C145.862 128.716 144.413 127.186 143.348 125.183C142.291 123.18 141.763 120.756 141.763 117.909C141.763 115.054 142.3 112.625 143.373 110.622C144.447 108.619 145.905 107.094 147.746 106.045C149.586 104.989 151.657 104.46 153.959 104.46C155.476 104.46 156.882 104.673 158.177 105.099C159.481 105.526 160.636 106.148 161.642 106.966C162.648 107.776 163.466 108.768 164.096 109.945C164.736 111.121 165.145 112.467 165.324 113.984ZM193.353 117.909C193.353 120.764 192.812 123.193 191.729 125.196C190.655 127.199 189.189 128.729 187.331 129.786C185.482 130.834 183.403 131.358 181.093 131.358C178.766 131.358 176.678 130.83 174.829 129.773C172.979 128.716 171.518 127.186 170.444 125.183C169.37 123.18 168.833 120.756 168.833 117.909C168.833 115.054 169.37 112.625 170.444 110.622C171.518 108.619 172.979 107.094 174.829 106.045C176.678 104.989 178.766 104.46 181.093 104.46C183.403 104.46 185.482 104.989 187.331 106.045C189.189 107.094 190.655 108.619 191.729 110.622C192.812 112.625 193.353 115.054 193.353 117.909ZM187.741 117.909C187.741 116.06 187.464 114.5 186.91 113.23C186.364 111.96 185.593 110.997 184.596 110.341C183.599 109.685 182.431 109.357 181.093 109.357C179.755 109.357 178.587 109.685 177.59 110.341C176.593 110.997 175.817 111.96 175.263 113.23C174.718 114.5 174.445 116.06 174.445 117.909C174.445 119.759 174.718 121.318 175.263 122.588C175.817 123.858 176.593 124.821 177.59 125.477C178.587 126.134 179.755 126.462 181.093 126.462C182.431 126.462 183.599 126.134 184.596 125.477C185.593 124.821 186.364 123.858 186.91 122.588C187.464 121.318 187.741 119.759 187.741 117.909ZM197.453 104.818H204.28L211.49 122.409H211.797L219.007 104.818H225.834V131H220.465V113.959H220.247L213.472 130.872H209.816L203.04 113.895H202.823V131H197.453V104.818ZM230.395 131V104.818H240.724C242.71 104.818 244.402 105.197 245.8 105.956C247.197 106.706 248.263 107.75 248.996 109.088C249.737 110.418 250.108 111.952 250.108 113.69C250.108 115.429 249.733 116.963 248.983 118.293C248.233 119.622 247.146 120.658 245.723 121.399C244.308 122.141 242.595 122.511 240.584 122.511H234V118.075H239.689C240.754 118.075 241.632 117.892 242.322 117.526C243.021 117.151 243.541 116.635 243.882 115.979C244.231 115.314 244.406 114.551 244.406 113.69C244.406 112.821 244.231 112.062 243.882 111.415C243.541 110.759 243.021 110.251 242.322 109.893C241.623 109.527 240.737 109.344 239.663 109.344H235.93V131H230.395ZM255.193 131H249.261L258.299 104.818H265.433L274.458 131H268.526L261.968 110.801H261.764L255.193 131ZM254.822 120.709H268.833V125.03H254.822V120.709ZM299.509 104.818V131H294.727L283.337 114.521H283.145V131H277.61V104.818H282.468L293.769 121.284H293.999V104.818H299.509ZM304.082 131V104.818H309.618V115.621H320.855V104.818H326.378V131H320.855V120.185H309.618V131H304.082ZM335.454 131H329.523L338.561 104.818H345.694L354.72 131H348.788L342.23 110.801H342.025L335.454 131ZM335.084 120.709H349.095V125.03H335.084V120.709ZM370.716 131H364.784L373.823 104.818H380.956L389.982 131H384.05L377.492 110.801H377.287L370.716 131ZM370.345 120.709H384.357V125.03H370.345V120.709ZM401.785 121.898H406.489L408.854 124.94L411.181 127.651L415.566 133.148H410.401L407.384 129.44L405.837 127.241L401.785 121.898ZM415.962 117.909C415.962 120.764 415.421 123.193 414.339 125.196C413.265 127.199 411.799 128.729 409.941 129.786C408.091 130.834 406.012 131.358 403.702 131.358C401.376 131.358 399.287 130.83 397.438 129.773C395.589 128.716 394.127 127.186 393.053 125.183C391.979 123.18 391.442 120.756 391.442 117.909C391.442 115.054 391.979 112.625 393.053 110.622C394.127 108.619 395.589 107.094 397.438 106.045C399.287 104.989 401.376 104.46 403.702 104.46C406.012 104.46 408.091 104.989 409.941 106.045C411.799 107.094 413.265 108.619 414.339 110.622C415.421 112.625 415.962 115.054 415.962 117.909ZM410.35 117.909C410.35 116.06 410.073 114.5 409.519 113.23C408.974 111.96 408.202 110.997 407.205 110.341C406.208 109.685 405.04 109.357 403.702 109.357C402.364 109.357 401.197 109.685 400.199 110.341C399.202 110.997 398.427 111.96 397.873 113.23C397.327 114.5 397.055 116.06 397.055 117.909C397.055 119.759 397.327 121.318 397.873 122.588C398.427 123.858 399.202 124.821 400.199 125.477C401.197 126.134 402.364 126.462 403.702 126.462C405.04 126.462 406.208 126.134 407.205 125.477C408.202 124.821 408.974 123.858 409.519 122.588C410.073 121.318 410.35 119.759 410.35 117.909ZM436.235 104.818H441.77V121.821C441.77 123.73 441.314 125.401 440.402 126.832C439.499 128.264 438.233 129.381 436.605 130.182C434.977 130.974 433.081 131.371 430.916 131.371C428.743 131.371 426.843 130.974 425.215 130.182C423.587 129.381 422.321 128.264 421.418 126.832C420.514 125.401 420.063 123.73 420.063 121.821V104.818H425.598V121.348C425.598 122.345 425.816 123.232 426.25 124.007C426.693 124.783 427.316 125.392 428.117 125.835C428.918 126.278 429.851 126.5 430.916 126.5C431.99 126.5 432.923 126.278 433.716 125.835C434.517 125.392 435.135 124.783 435.57 124.007C436.013 123.232 436.235 122.345 436.235 121.348V104.818ZM451.86 104.818V131H446.324V104.818H451.86ZM462.819 104.818L462.32 123.151H457.642L457.13 104.818H462.819ZM459.981 131.332C459.137 131.332 458.413 131.034 457.808 130.438C457.203 129.832 456.904 129.108 456.913 128.264C456.904 127.429 457.203 126.713 457.808 126.116C458.413 125.52 459.137 125.222 459.981 125.222C460.791 125.222 461.502 125.52 462.116 126.116C462.73 126.713 463.041 127.429 463.049 128.264C463.041 128.827 462.892 129.342 462.602 129.811C462.32 130.271 461.95 130.642 461.49 130.923C461.029 131.196 460.526 131.332 459.981 131.332Z" fill="white"/>
</svg>
